<?xml version="1.0" encoding="utf-8"?>
<!DOCTYPE svg PUBLIC "-//W3C//DTD SVG 1.0//EN" "http://www.w3.org/TR/2001/REC-SVG-20010904/DTD/svg10.dtd">
<svg aria-labelledby="title desc" fill-rule="evenodd" height="4.377391304347826in" preserveAspectRatio="none" stroke-linecap="round" viewBox="0 0 2484 2517" width="4.32in" xmlns="http://www.w3.org/2000/svg" xmlns:xlink="http://www.w3.org/1999/xlink"><title>cartoons,encouragement,gestures,incentives,motivations,reaching,Screen Beans®,stimulus,carrots,people</title><desc>Original keywords: cartoons,encouragement,gestures,incentives,motivations,reaching,Screen Beans®,stimulus,carrots,people. This clipart was ripped from the Microsoft website, then uploaded to https://archive.org/details/MS_Clipart_Collection. (The original WMF file can be found within that item, under the folder MC900078726). From there, it was then converted by Trumad to svg using https://github.com/hidekatsu-izuno/wmf2svg in a bulk operation. All the converted files can be found at https://archive.org/details/MS_Clipart_Collection_SVG</desc>
<style type="text/css">
.brush0 { fill: rgb(255,255,255); }
.pen0 { stroke: rgb(0,0,0); stroke-width: 1; stroke-linejoin: round; }
.pen1 { stroke: none; }
.brush1 { fill: rgb(178,178,178); }
.pen2 { stroke: rgb(0,0,0); stroke-width: 8; stroke-linejoin: round; }
.brush2 { fill: none; }
.brush3 { fill: rgb(255,153,102); }
.brush4 { fill: rgb(0,204,153); }
.brush5 { fill: rgb(0,0,0); }
</style>
<g>
<polygon class="pen1 brush1" points="36,1711 51,1581 73,1430 109,1287 153,1177 197,1061 284,910 350,814 416,732 511,623 591,548 708,452 825,376 949,308 1022,274 1146,219 1270,171 1402,137 1526,110 1643,96 1781,89 1891,89 1964,89 1964,137 1796,137 1665,144 1504,164 1394,192 1263,226 1161,260 1051,308 971,349 847,418 759,479 671,548 562,650 460,773 401,842 335,938 277,1047 233,1143 182,1273 146,1369 124,1485 116,1595 102,1691 94,1759 36,1745"/>
<polyline class="pen2" fill="none" points="394,1457 365,1457 336,1457 306,1457 285,1457 263,1457 241,1450 219,1430 197,1409 175,1389 161,1368 146,1348 124,1334 109,1314 109,1293 131,1280 131,1259 124,1239 102,1232 88,1273 109,1259 109,1239 102,1212 80,1198 58,1177 36,1184 15,1198 0,1218 0,1239 22,1246 44,1246 73,1246 95,1252 95,1232 102,1212 117,1191 117,1171 95,1157 73,1157 66,1184 66,1212 73,1239 66,1266 44,1280 22,1300 15,1321 0,1348 0,1355"/>
<polygon class="pen1 brush3" points="1622,1336 1651,1274 1703,1233 1768,1158 1827,1075 1871,986 1929,938 2002,904 2032,890 2068,890 2068,931 2054,959 2024,993 1995,1027 1944,1075 1856,1158 1834,1192 1820,1240 1725,1281 1681,1309"/>
<polygon class="pen1 brush4" points="2038,876 2038,842 2031,821 1973,828 1951,828 1958,801 1980,773 2002,767 2024,767 2024,787 2031,767 2046,746 2060,725 2060,698 2046,677 2024,664 2024,643 2024,623 2016,602 1995,588 1995,568 2009,541 2031,534 2038,554 2024,575 2016,595 2038,595 2053,575 2053,547 2075,534 2097,527 2119,547 2119,568 2097,588 2082,609 2097,630 2119,630 2133,671 2111,677 2089,677 2075,705 2068,760 2082,780 2126,780 2097,787 2053,794 2053,815 2075,821 2097,815 2104,787 2104,732 2097,712 2133,684 2177,630 2192,691 2184,712 2155,712 2133,712 2148,643 2155,602 2170,561 2192,547 2199,568 2199,623 2184,643 2206,609 2214,568 2221,547 2221,520 2243,554 2265,561 2279,534 2279,493 2287,472 2316,472 2330,493 2338,513 2323,534 2301,547 2287,568 2316,568 2338,561 2381,554 2396,575 2403,630 2374,636 2330,630 2301,623 2279,623 2250,671 2243,712 2250,732 2272,739 2250,753 2228,753 2206,746 2184,760 2170,780 2199,794 2228,794 2287,746 2301,705 2323,684 2330,657 2352,650 2374,664 2374,684 2352,698 2330,705 2308,705 2308,725 2316,746 2338,753 2360,753 2338,767 2308,787 2308,808 2330,808 2374,808 2396,794 2418,787 2440,794 2462,794 2484,815 2440,828 2411,828 2433,842 2455,849 2455,869 2462,890 2455,910 2433,910 2389,910 2374,890 2374,862 2352,856 2323,849 2301,862 2294,917 2308,869 2308,849 2287,828 2265,828 2243,828 2287,842 2308,849 2330,856 2352,869 2352,890 2345,910 2330,938 2338,965 2345,986 2338,1006 2279,1020 2250,1020 2235,999 2235,979 2250,952 2250,931 2250,910 2250,883 2228,883 2206,890 2199,842 2184,821 2155,821 2126,835 2126,876 2141,897 2119,897 2104,876 2082,876 2038,876"/>
<polyline class="pen2" fill="none" points="1959,1054 1981,1027 1981,1006 1974,986 1952,972 1930,965 1908,958 1886,958 1864,958 1886,972 1901,951 1923,931 1945,924 1974,917 1959,938 1937,951 1908,958 1893,979 1886,999 1908,999 1901,979 1908,130 1930,110 1923,89 1901,82 1886,62 1886,41 1908,21 1923,0 1930,27 1915,48 1893,62 1886,41 1871,21 1849,14 1827,27 1827,48 1842,68 1864,68 1886,62 1864,68 1849,96 1849,110"/>
<polygon class="pen1 brush5" points="577,843 533,836 453,843 423,877 380,925 358,980 343,1035 350,1089 358,1124 402,1144 467,1144 511,1117 548,1062 577,1028 665,1028 665,1007 584,994 599,946 584,898"/>
<polygon class="pen1 brush5" points="302,1314 338,1280 367,1280 426,1287 572,1300 696,1314 828,1314 937,1294 1018,1239 1047,1246 974,1294 1069,1294 1069,1314 966,1314 1054,1369 1032,1389 974,1348 988,1389 959,1389 937,1348 908,1341 857,1341 769,1348 645,1348 506,1341 389,1348 324,1341"/>
<polygon class="pen1 brush5" points="289,1169 325,1151 379,1155 442,1185 472,1260 459,1315 445,1408 394,1486 350,1534 296,1586 277,1629 277,1682 296,1718 296,1784 260,1819 204,1825 136,1828 77,1800 48,1757 29,1661 29,1586 63,1463 106,1349 187,1244 245,1192"/>
<polygon class="pen1 brush5" points="247,1749 284,1776 298,1803 313,1899 320,1963 320,2072 318,2175 303,2257 291,2282 369,2296 435,2312 523,2346 533,2360 525,2385 481,2406 464,2394 450,2367 408,2344 335,2319 289,2312 233,2312 233,2291 259,2269 284,2196 291,2118 289,2050 284,1963 269,1888 237,1833 215,1783 223,1764"/>
<polygon class="pen1 brush5" points="59,1826 59,1779 81,1767 115,1767 140,1794 145,1820 140,1874 123,1943 115,2048 110,2116 110,2127 118,2223 130,2278 140,2321 137,2339 169,2389 203,2421 240,2451 271,2465 271,2490 254,2510 213,2517 183,2503 183,2485 159,2421 118,2387 88,2353 67,2335 74,2312 86,2250 86,2134 81,2052 81,1970 79,1881"/>
<polygon class="pen1 brush5" points="439,1215 475,1249 504,1249 563,1242 709,1229 833,1215 965,1215 1074,1236 1155,1290 1184,1284 1111,1236 1206,1236 1206,1215 1103,1215 1191,1160 1169,1139 1111,1181 1125,1139 1096,1139 1074,1181 1045,1188 994,1188 906,1181 782,1181 643,1188 526,1181 461,1188"/>
</g>
</svg>