<?xml version="1.0" encoding="utf-8"?>
<!DOCTYPE svg PUBLIC "-//W3C//DTD SVG 1.0//EN" "http://www.w3.org/TR/2001/REC-SVG-20010904/DTD/svg10.dtd">
<svg aria-labelledby="title desc" fill-rule="evenodd" height="3.9305555555555554in" preserveAspectRatio="none" stroke-linecap="round" viewBox="0 0 1082 2264" width="1.8784722222222223in" xmlns="http://www.w3.org/2000/svg" xmlns:xlink="http://www.w3.org/1999/xlink"><title>cartoons,depression,despair,emotions,gestures,gloom,people,sadness,Screen Beans®,slumping,sorrow</title><desc>Original keywords: cartoons,depression,despair,emotions,gestures,gloom,people,sadness,Screen Beans®,slumping,sorrow. This clipart was ripped from the Microsoft website, then uploaded to https://archive.org/details/MS_Clipart_Collection. (The original WMF file can be found within that item, under the folder MC900078739). From there, it was then converted by Trumad to svg using https://github.com/hidekatsu-izuno/wmf2svg in a bulk operation. All the converted files can be found at https://archive.org/details/MS_Clipart_Collection_SVG</desc>
<style type="text/css">
.brush0 { fill: rgb(255,255,255); }
.pen0 { stroke: rgb(0,0,0); stroke-width: 1; stroke-linejoin: round; }
.pen1 { stroke: none; }
.brush1 { fill: rgb(0,0,0); }
.brush2 { fill: none; }
</style>
<g>
<polygon class="pen1 brush1" points="521,58 468,21 354,0 241,25 150,113 90,225 60,384 37,613 44,846 67,971 105,1071 158,1134 252,1134 366,1101 419,996 411,825 377,713 339,538 317,459 332,325 385,288 441,288 536,238 555,163 536,88"/>
<polygon class="pen1 brush1" points="570,94 642,35 738,7 882,12 1014,62 1074,149 1083,245 1046,309 974,350 866,368 806,354 702,518 678,514 762,341 686,322 638,281 594,226 566,158"/>
<polygon class="pen1 brush1" points="479,191 520,241 540,323 544,486 528,696 532,914 540,1059 577,1196 568,1278 495,1364 430,1373 410,1337 434,1323 471,1323 520,1296 532,1209 515,1155 467,1141 467,1050 495,982 491,787 491,623 491,505 471,391 434,273 454,232"/>
<polygon class="pen1 brush1" points="182,1003 250,1003 298,1031 314,1131 314,1295 290,1473 242,1555 194,1733 158,1884 158,2030 158,2126 290,2112 410,2130 471,2171 442,2249 406,2262 370,2221 302,2180 202,2180 110,2185 70,2180 70,2144 86,2117 110,2002 110,1829 142,1665 170,1555 238,1428 238,1264 202,1140 166,1058"/>
<polygon class="pen1 brush1" points="112,893 180,893 228,921 244,1021 244,1185 220,1363 172,1445 124,1622 88,1772 88,1918 88,2014 220,2000 340,2018 401,2059 372,2137 336,2150 300,2110 232,2069 132,2069 40,2073 0,2069 0,2032 16,2005 40,1891 40,1718 72,1554 100,1445 168,1317 168,1153 132,1030 96,948"/>
<polygon class="pen1 brush1" points="407,99 447,149 467,231 471,395 455,604 459,823 467,969 502,1105 495,1187 423,1274 359,1283 339,1247 363,1233 399,1233 447,1206 459,1119 443,1064 395,1051 395,960 423,891 419,696 419,532 419,413 399,299 363,181 383,140"/>
</g>
</svg>